<?xml version="1.0" encoding="UTF-8" standalone="no"?>
<svg
   viewBox="0 0 256 256"
   version="1.1"
   id="svg952"
   sodipodi:docname="confettify.svg"
   width="256"
   height="256"
   inkscape:version="1.1.2 (0a00cf5339, 2022-02-04, custom)"
   xmlns:inkscape="http://www.inkscape.org/namespaces/inkscape"
   xmlns:sodipodi="http://sodipodi.sourceforge.net/DTD/sodipodi-0.dtd"
   xmlns="http://www.w3.org/2000/svg"
   xmlns:svg="http://www.w3.org/2000/svg">
  <sodipodi:namedview
     id="namedview954"
     pagecolor="#505050"
     bordercolor="#ffffff"
     borderopacity="1"
     inkscape:pageshadow="0"
     inkscape:pageopacity="0"
     inkscape:pagecheckerboard="1"
     showgrid="true"
     width="512px"
     inkscape:zoom="2.6244743"
     inkscape:cx="121.16712"
     inkscape:cy="143.83833"
     inkscape:window-width="1920"
     inkscape:window-height="1080"
     inkscape:window-x="0"
     inkscape:window-y="0"
     inkscape:window-maximized="1"
     inkscape:current-layer="svg952">
    <inkscape:grid
       type="xygrid"
       id="grid1891"
       originx="0"
       originy="0"
       spacingx="8"
       spacingy="8"
       color="#ffffff"
       opacity="0.26666667"
       empcolor="#ffffff"
       empopacity="0.53333333" />
  </sodipodi:namedview>
  <defs
     id="defs916">
    <style
       id="style914">.cls-1{fill:#e72429;}</style>
  </defs>
  <g
     id="Layer_2"
     data-name="Layer 2"
     transform="translate(7.9999345,7.9999345)">
    <g
       id="Layer_1-2"
       data-name="Layer 1">
      <path
         class="cls-1"
         d="M 18.45,63.47 A 18.4,18.4 0 0 0 2.31,45.23 73.13,73.13 0 0 0 2.31,81.7 18.38,18.38 0 0 0 18.45,63.47"
         id="path918" />
      <path
         class="cls-1"
         d="M 29.13,57.7 A 5.77,5.77 0 1 0 34.9,63.47 5.77,5.77 0 0 0 29.13,57.7"
         id="path920" />
      <path
         class="cls-1"
         d="m 108.72,63.47 a 18.38,18.38 0 0 0 16.14,18.23 73.13,73.13 0 0 0 0,-36.47 18.4,18.4 0 0 0 -16.14,18.24"
         id="path922" />
      <path
         class="cls-1"
         d="m 98,57.7 a 5.77,5.77 0 1 0 5.76,5.77 A 5.77,5.77 0 0 0 98,57.7"
         id="path924" />
      <path
         class="cls-1"
         d="m 63.46,108.77 a 18.39,18.39 0 0 0 -18.23,16.13 73.13,73.13 0 0 0 36.47,0 18.38,18.38 0 0 0 -18.24,-16.13"
         id="path926" />
      <path
         class="cls-1"
         d="m 63.47,92.31 a 5.77,5.77 0 1 0 5.76,5.77 5.77,5.77 0 0 0 -5.76,-5.77"
         id="path928" />
      <path
         class="cls-1"
         d="M 63.47,18.44 A 18.37,18.37 0 0 0 81.7,2.31 a 73.13,73.13 0 0 0 -36.47,0 18.39,18.39 0 0 0 18.24,16.13"
         id="path930" />
      <path
         class="cls-1"
         d="m 63.47,23.37 a 5.77,5.77 0 1 0 5.76,5.76 5.76,5.76 0 0 0 -5.76,-5.76"
         id="path932" />
      <path
         class="cls-1"
         d="m 95.44,95.44 a 18.4,18.4 0 0 0 -1.5,24.29 73,73 0 0 0 25.78,-25.79 18.39,18.39 0 0 0 -24.28,1.5"
         id="path934" />
      <path
         class="cls-1"
         d="m 83.8,83.8 a 5.77,5.77 0 1 0 8.16,0 5.78,5.78 0 0 0 -8.16,0"
         id="path936" />
      <path
         class="cls-1"
         d="M 31.59,31.59 A 18.36,18.36 0 0 0 33.09,7.31 72.93,72.93 0 0 0 7.31,33.09 18.36,18.36 0 0 0 31.59,31.59"
         id="path938" />
      <path
         class="cls-1"
         d="m 35.07,35.08 a 5.77,5.77 0 1 0 8.16,0 5.78,5.78 0 0 0 -8.16,0"
         id="path940" />
      <path
         class="cls-1"
         d="M 95.4,31.53 A 18.39,18.39 0 0 0 119.69,33 72.88,72.88 0 0 0 93.9,7.25 18.39,18.39 0 0 0 95.4,31.53"
         id="path942" />
      <path
         class="cls-1"
         d="m 91.92,43.17 a 5.76,5.76 0 1 0 -8.15,0 5.76,5.76 0 0 0 8.15,0"
         id="path944" />
      <path
         class="cls-1"
         d="M 31.56,95.37 A 18.39,18.39 0 0 0 7.28,93.87 73,73 0 0 0 33.06,119.66 18.38,18.38 0 0 0 31.56,95.37"
         id="path946" />
      <path
         class="cls-1"
         d="m 35,83.73 a 5.77,5.77 0 1 0 8.16,0 5.79,5.79 0 0 0 -8.16,0"
         id="path948" />
    </g>
  </g>
  <g
     id="Layer_2-8"
     data-name="Layer 2"
     transform="matrix(0.50326387,0,0,0.50326387,143.99997,39.999967)">
    <g
       id="Layer_1-2-1"
       data-name="Layer 1">
      <path
         class="cls-1"
         d="M 18.45,63.47 A 18.4,18.4 0 0 0 2.31,45.23 73.13,73.13 0 0 0 2.31,81.7 18.38,18.38 0 0 0 18.45,63.47"
         id="path918-2" />
      <path
         class="cls-1"
         d="M 29.13,57.7 A 5.77,5.77 0 1 0 34.9,63.47 5.77,5.77 0 0 0 29.13,57.7"
         id="path920-9" />
      <path
         class="cls-1"
         d="m 108.72,63.47 a 18.38,18.38 0 0 0 16.14,18.23 73.13,73.13 0 0 0 0,-36.47 18.4,18.4 0 0 0 -16.14,18.24"
         id="path922-3" />
      <path
         class="cls-1"
         d="m 98,57.7 a 5.77,5.77 0 1 0 5.76,5.77 A 5.77,5.77 0 0 0 98,57.7"
         id="path924-9" />
      <path
         class="cls-1"
         d="m 63.46,108.77 a 18.39,18.39 0 0 0 -18.23,16.13 73.13,73.13 0 0 0 36.47,0 18.38,18.38 0 0 0 -18.24,-16.13"
         id="path926-0" />
      <path
         class="cls-1"
         d="m 63.47,92.31 a 5.77,5.77 0 1 0 5.76,5.77 5.77,5.77 0 0 0 -5.76,-5.77"
         id="path928-8" />
      <path
         class="cls-1"
         d="M 63.47,18.44 A 18.37,18.37 0 0 0 81.7,2.31 a 73.13,73.13 0 0 0 -36.47,0 18.39,18.39 0 0 0 18.24,16.13"
         id="path930-8" />
      <path
         class="cls-1"
         d="m 63.47,23.37 a 5.77,5.77 0 1 0 5.76,5.76 5.76,5.76 0 0 0 -5.76,-5.76"
         id="path932-5" />
      <path
         class="cls-1"
         d="m 95.44,95.44 a 18.4,18.4 0 0 0 -1.5,24.29 73,73 0 0 0 25.78,-25.79 18.39,18.39 0 0 0 -24.28,1.5"
         id="path934-0" />
      <path
         class="cls-1"
         d="m 83.8,83.8 a 5.77,5.77 0 1 0 8.16,0 5.78,5.78 0 0 0 -8.16,0"
         id="path936-9" />
      <path
         class="cls-1"
         d="M 31.59,31.59 A 18.36,18.36 0 0 0 33.09,7.31 72.93,72.93 0 0 0 7.31,33.09 18.36,18.36 0 0 0 31.59,31.59"
         id="path938-6" />
      <path
         class="cls-1"
         d="m 35.07,35.08 a 5.77,5.77 0 1 0 8.16,0 5.78,5.78 0 0 0 -8.16,0"
         id="path940-3" />
      <path
         class="cls-1"
         d="M 95.4,31.53 A 18.39,18.39 0 0 0 119.69,33 72.88,72.88 0 0 0 93.9,7.25 18.39,18.39 0 0 0 95.4,31.53"
         id="path942-8" />
      <path
         class="cls-1"
         d="m 91.92,43.17 a 5.76,5.76 0 1 0 -8.15,0 5.76,5.76 0 0 0 8.15,0"
         id="path944-5" />
      <path
         class="cls-1"
         d="M 31.56,95.37 A 18.39,18.39 0 0 0 7.28,93.87 73,73 0 0 0 33.06,119.66 18.38,18.38 0 0 0 31.56,95.37"
         id="path946-6" />
      <path
         class="cls-1"
         d="m 35,83.73 a 5.77,5.77 0 1 0 8.16,0 5.79,5.79 0 0 0 -8.16,0"
         id="path948-1" />
    </g>
  </g>
  <g
     id="Layer_2-8-7"
     data-name="Layer 2"
     transform="matrix(0.50326387,0,0,0.50326387,127.99997,127.99997)">
    <g
       id="Layer_1-2-1-7"
       data-name="Layer 1">
      <path
         class="cls-1"
         d="M 18.45,63.47 A 18.4,18.4 0 0 0 2.31,45.23 73.13,73.13 0 0 0 2.31,81.7 18.38,18.38 0 0 0 18.45,63.47"
         id="path918-2-64" />
      <path
         class="cls-1"
         d="M 29.13,57.7 A 5.77,5.77 0 1 0 34.9,63.47 5.77,5.77 0 0 0 29.13,57.7"
         id="path920-9-3" />
      <path
         class="cls-1"
         d="m 108.72,63.47 a 18.38,18.38 0 0 0 16.14,18.23 73.13,73.13 0 0 0 0,-36.47 18.4,18.4 0 0 0 -16.14,18.24"
         id="path922-3-0" />
      <path
         class="cls-1"
         d="m 98,57.7 a 5.77,5.77 0 1 0 5.76,5.77 A 5.77,5.77 0 0 0 98,57.7"
         id="path924-9-3" />
      <path
         class="cls-1"
         d="m 63.46,108.77 a 18.39,18.39 0 0 0 -18.23,16.13 73.13,73.13 0 0 0 36.47,0 18.38,18.38 0 0 0 -18.24,-16.13"
         id="path926-0-0" />
      <path
         class="cls-1"
         d="m 63.47,92.31 a 5.77,5.77 0 1 0 5.76,5.77 5.77,5.77 0 0 0 -5.76,-5.77"
         id="path928-8-9" />
      <path
         class="cls-1"
         d="M 63.47,18.44 A 18.37,18.37 0 0 0 81.7,2.31 a 73.13,73.13 0 0 0 -36.47,0 18.39,18.39 0 0 0 18.24,16.13"
         id="path930-8-2" />
      <path
         class="cls-1"
         d="m 63.47,23.37 a 5.77,5.77 0 1 0 5.76,5.76 5.76,5.76 0 0 0 -5.76,-5.76"
         id="path932-5-5" />
      <path
         class="cls-1"
         d="m 95.44,95.44 a 18.4,18.4 0 0 0 -1.5,24.29 73,73 0 0 0 25.78,-25.79 18.39,18.39 0 0 0 -24.28,1.5"
         id="path934-0-4" />
      <path
         class="cls-1"
         d="m 83.8,83.8 a 5.77,5.77 0 1 0 8.16,0 5.78,5.78 0 0 0 -8.16,0"
         id="path936-9-0" />
      <path
         class="cls-1"
         d="M 31.59,31.59 A 18.36,18.36 0 0 0 33.09,7.31 72.93,72.93 0 0 0 7.31,33.09 18.36,18.36 0 0 0 31.59,31.59"
         id="path938-6-59" />
      <path
         class="cls-1"
         d="m 35.07,35.08 a 5.77,5.77 0 1 0 8.16,0 5.78,5.78 0 0 0 -8.16,0"
         id="path940-3-4" />
      <path
         class="cls-1"
         d="M 95.4,31.53 A 18.39,18.39 0 0 0 119.69,33 72.88,72.88 0 0 0 93.9,7.25 18.39,18.39 0 0 0 95.4,31.53"
         id="path942-8-6" />
      <path
         class="cls-1"
         d="m 91.92,43.17 a 5.76,5.76 0 1 0 -8.15,0 5.76,5.76 0 0 0 8.15,0"
         id="path944-5-9" />
      <path
         class="cls-1"
         d="M 31.56,95.37 A 18.39,18.39 0 0 0 7.28,93.87 73,73 0 0 0 33.06,119.66 18.38,18.38 0 0 0 31.56,95.37"
         id="path946-6-2" />
      <path
         class="cls-1"
         d="m 35,83.73 a 5.77,5.77 0 1 0 8.16,0 5.79,5.79 0 0 0 -8.16,0"
         id="path948-1-2" />
    </g>
  </g>
  <g
     id="Layer_2-8-5"
     data-name="Layer 2"
     transform="matrix(0.50326387,0,0,0.50326387,39.999967,143.99997)">
    <g
       id="Layer_1-2-1-9"
       data-name="Layer 1">
      <path
         class="cls-1"
         d="M 18.45,63.47 A 18.4,18.4 0 0 0 2.31,45.23 73.13,73.13 0 0 0 2.31,81.7 18.38,18.38 0 0 0 18.45,63.47"
         id="path918-2-6" />
      <path
         class="cls-1"
         d="M 29.13,57.7 A 5.77,5.77 0 1 0 34.9,63.47 5.77,5.77 0 0 0 29.13,57.7"
         id="path920-9-2" />
      <path
         class="cls-1"
         d="m 108.72,63.47 a 18.38,18.38 0 0 0 16.14,18.23 73.13,73.13 0 0 0 0,-36.47 18.4,18.4 0 0 0 -16.14,18.24"
         id="path922-3-1" />
      <path
         class="cls-1"
         d="m 98,57.7 a 5.77,5.77 0 1 0 5.76,5.77 A 5.77,5.77 0 0 0 98,57.7"
         id="path924-9-7" />
      <path
         class="cls-1"
         d="m 63.46,108.77 a 18.39,18.39 0 0 0 -18.23,16.13 73.13,73.13 0 0 0 36.47,0 18.38,18.38 0 0 0 -18.24,-16.13"
         id="path926-0-8" />
      <path
         class="cls-1"
         d="m 63.47,92.31 a 5.77,5.77 0 1 0 5.76,5.77 5.77,5.77 0 0 0 -5.76,-5.77"
         id="path928-8-5" />
      <path
         class="cls-1"
         d="M 63.47,18.44 A 18.37,18.37 0 0 0 81.7,2.31 a 73.13,73.13 0 0 0 -36.47,0 18.39,18.39 0 0 0 18.24,16.13"
         id="path930-8-7" />
      <path
         class="cls-1"
         d="m 63.47,23.37 a 5.77,5.77 0 1 0 5.76,5.76 5.76,5.76 0 0 0 -5.76,-5.76"
         id="path932-5-4" />
      <path
         class="cls-1"
         d="m 95.44,95.44 a 18.4,18.4 0 0 0 -1.5,24.29 73,73 0 0 0 25.78,-25.79 18.39,18.39 0 0 0 -24.28,1.5"
         id="path934-0-1" />
      <path
         class="cls-1"
         d="m 83.8,83.8 a 5.77,5.77 0 1 0 8.16,0 5.78,5.78 0 0 0 -8.16,0"
         id="path936-9-8" />
      <path
         class="cls-1"
         d="M 31.59,31.59 A 18.36,18.36 0 0 0 33.09,7.31 72.93,72.93 0 0 0 7.31,33.09 18.36,18.36 0 0 0 31.59,31.59"
         id="path938-6-5" />
      <path
         class="cls-1"
         d="m 35.07,35.08 a 5.77,5.77 0 1 0 8.16,0 5.78,5.78 0 0 0 -8.16,0"
         id="path940-3-9" />
      <path
         class="cls-1"
         d="M 95.4,31.53 A 18.39,18.39 0 0 0 119.69,33 72.88,72.88 0 0 0 93.9,7.25 18.39,18.39 0 0 0 95.4,31.53"
         id="path942-8-7" />
      <path
         class="cls-1"
         d="m 91.92,43.17 a 5.76,5.76 0 1 0 -8.15,0 5.76,5.76 0 0 0 8.15,0"
         id="path944-5-5" />
      <path
         class="cls-1"
         d="M 31.56,95.37 A 18.39,18.39 0 0 0 7.28,93.87 73,73 0 0 0 33.06,119.66 18.38,18.38 0 0 0 31.56,95.37"
         id="path946-6-3" />
      <path
         class="cls-1"
         d="m 35,83.73 a 5.77,5.77 0 1 0 8.16,0 5.79,5.79 0 0 0 -8.16,0"
         id="path948-1-8" />
    </g>
  </g>
  <g
     id="Layer_2-8-5-8-4"
     data-name="Layer 2"
     transform="matrix(0.25163193,0,0,0.25163193,216.37176,54.175669)">
    <g
       id="Layer_1-2-1-9-3-7"
       data-name="Layer 1">
      <path
         class="cls-1"
         d="M 18.45,63.47 A 18.4,18.4 0 0 0 2.31,45.23 73.13,73.13 0 0 0 2.31,81.7 18.38,18.38 0 0 0 18.45,63.47"
         id="path918-2-6-1-7" />
      <path
         class="cls-1"
         d="M 29.13,57.7 A 5.77,5.77 0 1 0 34.9,63.47 5.77,5.77 0 0 0 29.13,57.7"
         id="path920-9-2-8-5" />
      <path
         class="cls-1"
         d="m 108.72,63.47 a 18.38,18.38 0 0 0 16.14,18.23 73.13,73.13 0 0 0 0,-36.47 18.4,18.4 0 0 0 -16.14,18.24"
         id="path922-3-1-9-4" />
      <path
         class="cls-1"
         d="m 98,57.7 a 5.77,5.77 0 1 0 5.76,5.77 A 5.77,5.77 0 0 0 98,57.7"
         id="path924-9-7-6-8" />
      <path
         class="cls-1"
         d="m 63.46,108.77 a 18.39,18.39 0 0 0 -18.23,16.13 73.13,73.13 0 0 0 36.47,0 18.38,18.38 0 0 0 -18.24,-16.13"
         id="path926-0-8-4-1" />
      <path
         class="cls-1"
         d="m 63.47,92.31 a 5.77,5.77 0 1 0 5.76,5.77 5.77,5.77 0 0 0 -5.76,-5.77"
         id="path928-8-5-3-2" />
      <path
         class="cls-1"
         d="M 63.47,18.44 A 18.37,18.37 0 0 0 81.7,2.31 a 73.13,73.13 0 0 0 -36.47,0 18.39,18.39 0 0 0 18.24,16.13"
         id="path930-8-7-3-8" />
      <path
         class="cls-1"
         d="m 63.47,23.37 a 5.77,5.77 0 1 0 5.76,5.76 5.76,5.76 0 0 0 -5.76,-5.76"
         id="path932-5-4-3-9" />
      <path
         class="cls-1"
         d="m 95.44,95.44 a 18.4,18.4 0 0 0 -1.5,24.29 73,73 0 0 0 25.78,-25.79 18.39,18.39 0 0 0 -24.28,1.5"
         id="path934-0-1-8-3" />
      <path
         class="cls-1"
         d="m 83.8,83.8 a 5.77,5.77 0 1 0 8.16,0 5.78,5.78 0 0 0 -8.16,0"
         id="path936-9-8-6-6" />
      <path
         class="cls-1"
         d="M 31.59,31.59 A 18.36,18.36 0 0 0 33.09,7.31 72.93,72.93 0 0 0 7.31,33.09 18.36,18.36 0 0 0 31.59,31.59"
         id="path938-6-5-0-8" />
      <path
         class="cls-1"
         d="m 35.07,35.08 a 5.77,5.77 0 1 0 8.16,0 5.78,5.78 0 0 0 -8.16,0"
         id="path940-3-9-4-0" />
      <path
         class="cls-1"
         d="M 95.4,31.53 A 18.39,18.39 0 0 0 119.69,33 72.88,72.88 0 0 0 93.9,7.25 18.39,18.39 0 0 0 95.4,31.53"
         id="path942-8-7-8-2" />
      <path
         class="cls-1"
         d="m 91.92,43.17 a 5.76,5.76 0 1 0 -8.15,0 5.76,5.76 0 0 0 8.15,0"
         id="path944-5-5-8-1" />
      <path
         class="cls-1"
         d="M 31.56,95.37 A 18.39,18.39 0 0 0 7.28,93.87 73,73 0 0 0 33.06,119.66 18.38,18.38 0 0 0 31.56,95.37"
         id="path946-6-3-8-0" />
      <path
         class="cls-1"
         d="m 35,83.73 a 5.77,5.77 0 1 0 8.16,0 5.79,5.79 0 0 0 -8.16,0"
         id="path948-1-8-9-5" />
    </g>
  </g>
  <g
     id="Layer_2-8-5-8-4-42"
     data-name="Layer 2"
     transform="matrix(0.25163193,0,0,0.25163193,53.999984,215.99998)">
    <g
       id="Layer_1-2-1-9-3-7-9"
       data-name="Layer 1">
      <path
         class="cls-1"
         d="M 18.45,63.47 A 18.4,18.4 0 0 0 2.31,45.23 73.13,73.13 0 0 0 2.31,81.7 18.38,18.38 0 0 0 18.45,63.47"
         id="path918-2-6-1-7-61" />
      <path
         class="cls-1"
         d="M 29.13,57.7 A 5.77,5.77 0 1 0 34.9,63.47 5.77,5.77 0 0 0 29.13,57.7"
         id="path920-9-2-8-5-0" />
      <path
         class="cls-1"
         d="m 108.72,63.47 a 18.38,18.38 0 0 0 16.14,18.23 73.13,73.13 0 0 0 0,-36.47 18.4,18.4 0 0 0 -16.14,18.24"
         id="path922-3-1-9-4-4" />
      <path
         class="cls-1"
         d="m 98,57.7 a 5.77,5.77 0 1 0 5.76,5.77 A 5.77,5.77 0 0 0 98,57.7"
         id="path924-9-7-6-8-2" />
      <path
         class="cls-1"
         d="m 63.46,108.77 a 18.39,18.39 0 0 0 -18.23,16.13 73.13,73.13 0 0 0 36.47,0 18.38,18.38 0 0 0 -18.24,-16.13"
         id="path926-0-8-4-1-2" />
      <path
         class="cls-1"
         d="m 63.47,92.31 a 5.77,5.77 0 1 0 5.76,5.77 5.77,5.77 0 0 0 -5.76,-5.77"
         id="path928-8-5-3-2-2" />
      <path
         class="cls-1"
         d="M 63.47,18.44 A 18.37,18.37 0 0 0 81.7,2.31 a 73.13,73.13 0 0 0 -36.47,0 18.39,18.39 0 0 0 18.24,16.13"
         id="path930-8-7-3-8-0" />
      <path
         class="cls-1"
         d="m 63.47,23.37 a 5.77,5.77 0 1 0 5.76,5.76 5.76,5.76 0 0 0 -5.76,-5.76"
         id="path932-5-4-3-9-5" />
      <path
         class="cls-1"
         d="m 95.44,95.44 a 18.4,18.4 0 0 0 -1.5,24.29 73,73 0 0 0 25.78,-25.79 18.39,18.39 0 0 0 -24.28,1.5"
         id="path934-0-1-8-3-5" />
      <path
         class="cls-1"
         d="m 83.8,83.8 a 5.77,5.77 0 1 0 8.16,0 5.78,5.78 0 0 0 -8.16,0"
         id="path936-9-8-6-6-2" />
      <path
         class="cls-1"
         d="M 31.59,31.59 A 18.36,18.36 0 0 0 33.09,7.31 72.93,72.93 0 0 0 7.31,33.09 18.36,18.36 0 0 0 31.59,31.59"
         id="path938-6-5-0-8-9" />
      <path
         class="cls-1"
         d="m 35.07,35.08 a 5.77,5.77 0 1 0 8.16,0 5.78,5.78 0 0 0 -8.16,0"
         id="path940-3-9-4-0-0" />
      <path
         class="cls-1"
         d="M 95.4,31.53 A 18.39,18.39 0 0 0 119.69,33 72.88,72.88 0 0 0 93.9,7.25 18.39,18.39 0 0 0 95.4,31.53"
         id="path942-8-7-8-2-2" />
      <path
         class="cls-1"
         d="m 91.92,43.17 a 5.76,5.76 0 1 0 -8.15,0 5.76,5.76 0 0 0 8.15,0"
         id="path944-5-5-8-1-8" />
      <path
         class="cls-1"
         d="M 31.56,95.37 A 18.39,18.39 0 0 0 7.28,93.87 73,73 0 0 0 33.06,119.66 18.38,18.38 0 0 0 31.56,95.37"
         id="path946-6-3-8-0-38" />
      <path
         class="cls-1"
         d="m 35,83.73 a 5.77,5.77 0 1 0 8.16,0 5.79,5.79 0 0 0 -8.16,0"
         id="path948-1-8-9-5-0" />
    </g>
  </g>
  <g
     id="Layer_2-8-5-8-4-4"
     data-name="Layer 2"
     transform="matrix(0.25163193,0,0,0.25163193,215.99431,152.06605)">
    <g
       id="Layer_1-2-1-9-3-7-0"
       data-name="Layer 1">
      <path
         class="cls-1"
         d="M 18.45,63.47 A 18.4,18.4 0 0 0 2.31,45.23 73.13,73.13 0 0 0 2.31,81.7 18.38,18.38 0 0 0 18.45,63.47"
         id="path918-2-6-1-7-6" />
      <path
         class="cls-1"
         d="M 29.13,57.7 A 5.77,5.77 0 1 0 34.9,63.47 5.77,5.77 0 0 0 29.13,57.7"
         id="path920-9-2-8-5-2" />
      <path
         class="cls-1"
         d="m 108.72,63.47 a 18.38,18.38 0 0 0 16.14,18.23 73.13,73.13 0 0 0 0,-36.47 18.4,18.4 0 0 0 -16.14,18.24"
         id="path922-3-1-9-4-9" />
      <path
         class="cls-1"
         d="m 98,57.7 a 5.77,5.77 0 1 0 5.76,5.77 A 5.77,5.77 0 0 0 98,57.7"
         id="path924-9-7-6-8-9" />
      <path
         class="cls-1"
         d="m 63.46,108.77 a 18.39,18.39 0 0 0 -18.23,16.13 73.13,73.13 0 0 0 36.47,0 18.38,18.38 0 0 0 -18.24,-16.13"
         id="path926-0-8-4-1-0" />
      <path
         class="cls-1"
         d="m 63.47,92.31 a 5.77,5.77 0 1 0 5.76,5.77 5.77,5.77 0 0 0 -5.76,-5.77"
         id="path928-8-5-3-2-8" />
      <path
         class="cls-1"
         d="M 63.47,18.44 A 18.37,18.37 0 0 0 81.7,2.31 a 73.13,73.13 0 0 0 -36.47,0 18.39,18.39 0 0 0 18.24,16.13"
         id="path930-8-7-3-8-1" />
      <path
         class="cls-1"
         d="m 63.47,23.37 a 5.77,5.77 0 1 0 5.76,5.76 5.76,5.76 0 0 0 -5.76,-5.76"
         id="path932-5-4-3-9-3" />
      <path
         class="cls-1"
         d="m 95.44,95.44 a 18.4,18.4 0 0 0 -1.5,24.29 73,73 0 0 0 25.78,-25.79 18.39,18.39 0 0 0 -24.28,1.5"
         id="path934-0-1-8-3-1" />
      <path
         class="cls-1"
         d="m 83.8,83.8 a 5.77,5.77 0 1 0 8.16,0 5.78,5.78 0 0 0 -8.16,0"
         id="path936-9-8-6-6-1" />
      <path
         class="cls-1"
         d="M 31.59,31.59 A 18.36,18.36 0 0 0 33.09,7.31 72.93,72.93 0 0 0 7.31,33.09 18.36,18.36 0 0 0 31.59,31.59"
         id="path938-6-5-0-8-0" />
      <path
         class="cls-1"
         d="m 35.07,35.08 a 5.77,5.77 0 1 0 8.16,0 5.78,5.78 0 0 0 -8.16,0"
         id="path940-3-9-4-0-3" />
      <path
         class="cls-1"
         d="M 95.4,31.53 A 18.39,18.39 0 0 0 119.69,33 72.88,72.88 0 0 0 93.9,7.25 18.39,18.39 0 0 0 95.4,31.53"
         id="path942-8-7-8-2-4" />
      <path
         class="cls-1"
         d="m 91.92,43.17 a 5.76,5.76 0 1 0 -8.15,0 5.76,5.76 0 0 0 8.15,0"
         id="path944-5-5-8-1-0" />
      <path
         class="cls-1"
         d="M 31.56,95.37 A 18.39,18.39 0 0 0 7.28,93.87 73,73 0 0 0 33.06,119.66 18.38,18.38 0 0 0 31.56,95.37"
         id="path946-6-3-8-0-3" />
      <path
         class="cls-1"
         d="m 35,83.73 a 5.77,5.77 0 1 0 8.16,0 5.79,5.79 0 0 0 -8.16,0"
         id="path948-1-8-9-5-9" />
    </g>
  </g>
  <g
     id="Layer_2-8-5-8-4-4-1"
     data-name="Layer 2"
     transform="matrix(0.25163193,0,0,0.25163193,223.99431,104.06605)">
    <g
       id="Layer_1-2-1-9-3-7-0-9"
       data-name="Layer 1">
      <path
         class="cls-1"
         d="M 18.45,63.47 A 18.4,18.4 0 0 0 2.31,45.23 73.13,73.13 0 0 0 2.31,81.7 18.38,18.38 0 0 0 18.45,63.47"
         id="path918-2-6-1-7-6-6" />
      <path
         class="cls-1"
         d="M 29.13,57.7 A 5.77,5.77 0 1 0 34.9,63.47 5.77,5.77 0 0 0 29.13,57.7"
         id="path920-9-2-8-5-2-9" />
      <path
         class="cls-1"
         d="m 108.72,63.47 a 18.38,18.38 0 0 0 16.14,18.23 73.13,73.13 0 0 0 0,-36.47 18.4,18.4 0 0 0 -16.14,18.24"
         id="path922-3-1-9-4-9-3" />
      <path
         class="cls-1"
         d="m 98,57.7 a 5.77,5.77 0 1 0 5.76,5.77 A 5.77,5.77 0 0 0 98,57.7"
         id="path924-9-7-6-8-9-3" />
      <path
         class="cls-1"
         d="m 63.46,108.77 a 18.39,18.39 0 0 0 -18.23,16.13 73.13,73.13 0 0 0 36.47,0 18.38,18.38 0 0 0 -18.24,-16.13"
         id="path926-0-8-4-1-0-8" />
      <path
         class="cls-1"
         d="m 63.47,92.31 a 5.77,5.77 0 1 0 5.76,5.77 5.77,5.77 0 0 0 -5.76,-5.77"
         id="path928-8-5-3-2-8-0" />
      <path
         class="cls-1"
         d="M 63.47,18.44 A 18.37,18.37 0 0 0 81.7,2.31 a 73.13,73.13 0 0 0 -36.47,0 18.39,18.39 0 0 0 18.24,16.13"
         id="path930-8-7-3-8-1-5" />
      <path
         class="cls-1"
         d="m 63.47,23.37 a 5.77,5.77 0 1 0 5.76,5.76 5.76,5.76 0 0 0 -5.76,-5.76"
         id="path932-5-4-3-9-3-6" />
      <path
         class="cls-1"
         d="m 95.44,95.44 a 18.4,18.4 0 0 0 -1.5,24.29 73,73 0 0 0 25.78,-25.79 18.39,18.39 0 0 0 -24.28,1.5"
         id="path934-0-1-8-3-1-6" />
      <path
         class="cls-1"
         d="m 83.8,83.8 a 5.77,5.77 0 1 0 8.16,0 5.78,5.78 0 0 0 -8.16,0"
         id="path936-9-8-6-6-1-4" />
      <path
         class="cls-1"
         d="M 31.59,31.59 A 18.36,18.36 0 0 0 33.09,7.31 72.93,72.93 0 0 0 7.31,33.09 18.36,18.36 0 0 0 31.59,31.59"
         id="path938-6-5-0-8-0-0" />
      <path
         class="cls-1"
         d="m 35.07,35.08 a 5.77,5.77 0 1 0 8.16,0 5.78,5.78 0 0 0 -8.16,0"
         id="path940-3-9-4-0-3-0" />
      <path
         class="cls-1"
         d="M 95.4,31.53 A 18.39,18.39 0 0 0 119.69,33 72.88,72.88 0 0 0 93.9,7.25 18.39,18.39 0 0 0 95.4,31.53"
         id="path942-8-7-8-2-4-4" />
      <path
         class="cls-1"
         d="m 91.92,43.17 a 5.76,5.76 0 1 0 -8.15,0 5.76,5.76 0 0 0 8.15,0"
         id="path944-5-5-8-1-0-6" />
      <path
         class="cls-1"
         d="M 31.56,95.37 A 18.39,18.39 0 0 0 7.28,93.87 73,73 0 0 0 33.06,119.66 18.38,18.38 0 0 0 31.56,95.37"
         id="path946-6-3-8-0-3-2" />
      <path
         class="cls-1"
         d="m 35,83.73 a 5.77,5.77 0 1 0 8.16,0 5.79,5.79 0 0 0 -8.16,0"
         id="path948-1-8-9-5-9-6" />
    </g>
  </g>
  <g
     id="Layer_2-8-5-8-4-4-1-2"
     data-name="Layer 2"
     transform="matrix(0.25163193,0,0,0.25163193,103.99998,223.99998)">
    <g
       id="Layer_1-2-1-9-3-7-0-9-1"
       data-name="Layer 1">
      <path
         class="cls-1"
         d="M 18.45,63.47 A 18.4,18.4 0 0 0 2.31,45.23 73.13,73.13 0 0 0 2.31,81.7 18.38,18.38 0 0 0 18.45,63.47"
         id="path918-2-6-1-7-6-6-5" />
      <path
         class="cls-1"
         d="M 29.13,57.7 A 5.77,5.77 0 1 0 34.9,63.47 5.77,5.77 0 0 0 29.13,57.7"
         id="path920-9-2-8-5-2-9-9" />
      <path
         class="cls-1"
         d="m 108.72,63.47 a 18.38,18.38 0 0 0 16.14,18.23 73.13,73.13 0 0 0 0,-36.47 18.4,18.4 0 0 0 -16.14,18.24"
         id="path922-3-1-9-4-9-3-9" />
      <path
         class="cls-1"
         d="m 98,57.7 a 5.77,5.77 0 1 0 5.76,5.77 A 5.77,5.77 0 0 0 98,57.7"
         id="path924-9-7-6-8-9-3-1" />
      <path
         class="cls-1"
         d="m 63.46,108.77 a 18.39,18.39 0 0 0 -18.23,16.13 73.13,73.13 0 0 0 36.47,0 18.38,18.38 0 0 0 -18.24,-16.13"
         id="path926-0-8-4-1-0-8-4" />
      <path
         class="cls-1"
         d="m 63.47,92.31 a 5.77,5.77 0 1 0 5.76,5.77 5.77,5.77 0 0 0 -5.76,-5.77"
         id="path928-8-5-3-2-8-0-9" />
      <path
         class="cls-1"
         d="M 63.47,18.44 A 18.37,18.37 0 0 0 81.7,2.31 a 73.13,73.13 0 0 0 -36.47,0 18.39,18.39 0 0 0 18.24,16.13"
         id="path930-8-7-3-8-1-5-1" />
      <path
         class="cls-1"
         d="m 63.47,23.37 a 5.77,5.77 0 1 0 5.76,5.76 5.76,5.76 0 0 0 -5.76,-5.76"
         id="path932-5-4-3-9-3-6-0" />
      <path
         class="cls-1"
         d="m 95.44,95.44 a 18.4,18.4 0 0 0 -1.5,24.29 73,73 0 0 0 25.78,-25.79 18.39,18.39 0 0 0 -24.28,1.5"
         id="path934-0-1-8-3-1-6-7" />
      <path
         class="cls-1"
         d="m 83.8,83.8 a 5.77,5.77 0 1 0 8.16,0 5.78,5.78 0 0 0 -8.16,0"
         id="path936-9-8-6-6-1-4-5" />
      <path
         class="cls-1"
         d="M 31.59,31.59 A 18.36,18.36 0 0 0 33.09,7.31 72.93,72.93 0 0 0 7.31,33.09 18.36,18.36 0 0 0 31.59,31.59"
         id="path938-6-5-0-8-0-0-8" />
      <path
         class="cls-1"
         d="m 35.07,35.08 a 5.77,5.77 0 1 0 8.16,0 5.78,5.78 0 0 0 -8.16,0"
         id="path940-3-9-4-0-3-0-7" />
      <path
         class="cls-1"
         d="M 95.4,31.53 A 18.39,18.39 0 0 0 119.69,33 72.88,72.88 0 0 0 93.9,7.25 18.39,18.39 0 0 0 95.4,31.53"
         id="path942-8-7-8-2-4-4-0" />
      <path
         class="cls-1"
         d="m 91.92,43.17 a 5.76,5.76 0 1 0 -8.15,0 5.76,5.76 0 0 0 8.15,0"
         id="path944-5-5-8-1-0-6-4" />
      <path
         class="cls-1"
         d="M 31.56,95.37 A 18.39,18.39 0 0 0 7.28,93.87 73,73 0 0 0 33.06,119.66 18.38,18.38 0 0 0 31.56,95.37"
         id="path946-6-3-8-0-3-2-8" />
      <path
         class="cls-1"
         d="m 35,83.73 a 5.77,5.77 0 1 0 8.16,0 5.79,5.79 0 0 0 -8.16,0"
         id="path948-1-8-9-5-9-6-0" />
    </g>
  </g>
  <g
     id="Layer_2-8-5-8-1"
     data-name="Layer 2"
     transform="matrix(0.25163193,0,0,0.25163193,187.99998,187.99998)">
    <g
       id="Layer_1-2-1-9-3-1"
       data-name="Layer 1">
      <path
         class="cls-1"
         d="M 18.45,63.47 A 18.4,18.4 0 0 0 2.31,45.23 73.13,73.13 0 0 0 2.31,81.7 18.38,18.38 0 0 0 18.45,63.47"
         id="path918-2-6-1-0" />
      <path
         class="cls-1"
         d="M 29.13,57.7 A 5.77,5.77 0 1 0 34.9,63.47 5.77,5.77 0 0 0 29.13,57.7"
         id="path920-9-2-8-8" />
      <path
         class="cls-1"
         d="m 108.72,63.47 a 18.38,18.38 0 0 0 16.14,18.23 73.13,73.13 0 0 0 0,-36.47 18.4,18.4 0 0 0 -16.14,18.24"
         id="path922-3-1-9-5" />
      <path
         class="cls-1"
         d="m 98,57.7 a 5.77,5.77 0 1 0 5.76,5.77 A 5.77,5.77 0 0 0 98,57.7"
         id="path924-9-7-6-0" />
      <path
         class="cls-1"
         d="m 63.46,108.77 a 18.39,18.39 0 0 0 -18.23,16.13 73.13,73.13 0 0 0 36.47,0 18.38,18.38 0 0 0 -18.24,-16.13"
         id="path926-0-8-4-6" />
      <path
         class="cls-1"
         d="m 63.47,92.31 a 5.77,5.77 0 1 0 5.76,5.77 5.77,5.77 0 0 0 -5.76,-5.77"
         id="path928-8-5-3-4" />
      <path
         class="cls-1"
         d="M 63.47,18.44 A 18.37,18.37 0 0 0 81.7,2.31 a 73.13,73.13 0 0 0 -36.47,0 18.39,18.39 0 0 0 18.24,16.13"
         id="path930-8-7-3-6" />
      <path
         class="cls-1"
         d="m 63.47,23.37 a 5.77,5.77 0 1 0 5.76,5.76 5.76,5.76 0 0 0 -5.76,-5.76"
         id="path932-5-4-3-2" />
      <path
         class="cls-1"
         d="m 95.44,95.44 a 18.4,18.4 0 0 0 -1.5,24.29 73,73 0 0 0 25.78,-25.79 18.39,18.39 0 0 0 -24.28,1.5"
         id="path934-0-1-8-5" />
      <path
         class="cls-1"
         d="m 83.8,83.8 a 5.77,5.77 0 1 0 8.16,0 5.78,5.78 0 0 0 -8.16,0"
         id="path936-9-8-6-8" />
      <path
         class="cls-1"
         d="M 31.59,31.59 A 18.36,18.36 0 0 0 33.09,7.31 72.93,72.93 0 0 0 7.31,33.09 18.36,18.36 0 0 0 31.59,31.59"
         id="path938-6-5-0-6" />
      <path
         class="cls-1"
         d="m 35.07,35.08 a 5.77,5.77 0 1 0 8.16,0 5.78,5.78 0 0 0 -8.16,0"
         id="path940-3-9-4-2" />
      <path
         class="cls-1"
         d="M 95.4,31.53 A 18.39,18.39 0 0 0 119.69,33 72.88,72.88 0 0 0 93.9,7.25 18.39,18.39 0 0 0 95.4,31.53"
         id="path942-8-7-8-8" />
      <path
         class="cls-1"
         d="m 91.92,43.17 a 5.76,5.76 0 1 0 -8.15,0 5.76,5.76 0 0 0 8.15,0"
         id="path944-5-5-8-4" />
      <path
         class="cls-1"
         d="M 31.56,95.37 A 18.39,18.39 0 0 0 7.28,93.87 73,73 0 0 0 33.06,119.66 18.38,18.38 0 0 0 31.56,95.37"
         id="path946-6-3-8-7" />
      <path
         class="cls-1"
         d="m 35,83.73 a 5.77,5.77 0 1 0 8.16,0 5.79,5.79 0 0 0 -8.16,0"
         id="path948-1-8-9-2" />
    </g>
  </g>
  <g
     id="Layer_2-8-5-8-1-7"
     data-name="Layer 2"
     transform="matrix(0.25163193,0,0,0.25163193,151.99998,216.06605)">
    <g
       id="Layer_1-2-1-9-3-1-5"
       data-name="Layer 1">
      <path
         class="cls-1"
         d="M 18.45,63.47 A 18.4,18.4 0 0 0 2.31,45.23 73.13,73.13 0 0 0 2.31,81.7 18.38,18.38 0 0 0 18.45,63.47"
         id="path918-2-6-1-0-6" />
      <path
         class="cls-1"
         d="M 29.13,57.7 A 5.77,5.77 0 1 0 34.9,63.47 5.77,5.77 0 0 0 29.13,57.7"
         id="path920-9-2-8-8-9" />
      <path
         class="cls-1"
         d="m 108.72,63.47 a 18.38,18.38 0 0 0 16.14,18.23 73.13,73.13 0 0 0 0,-36.47 18.4,18.4 0 0 0 -16.14,18.24"
         id="path922-3-1-9-5-8" />
      <path
         class="cls-1"
         d="m 98,57.7 a 5.77,5.77 0 1 0 5.76,5.77 A 5.77,5.77 0 0 0 98,57.7"
         id="path924-9-7-6-0-7" />
      <path
         class="cls-1"
         d="m 63.46,108.77 a 18.39,18.39 0 0 0 -18.23,16.13 73.13,73.13 0 0 0 36.47,0 18.38,18.38 0 0 0 -18.24,-16.13"
         id="path926-0-8-4-6-2" />
      <path
         class="cls-1"
         d="m 63.47,92.31 a 5.77,5.77 0 1 0 5.76,5.77 5.77,5.77 0 0 0 -5.76,-5.77"
         id="path928-8-5-3-4-8" />
      <path
         class="cls-1"
         d="M 63.47,18.44 A 18.37,18.37 0 0 0 81.7,2.31 a 73.13,73.13 0 0 0 -36.47,0 18.39,18.39 0 0 0 18.24,16.13"
         id="path930-8-7-3-6-2" />
      <path
         class="cls-1"
         d="m 63.47,23.37 a 5.77,5.77 0 1 0 5.76,5.76 5.76,5.76 0 0 0 -5.76,-5.76"
         id="path932-5-4-3-2-9" />
      <path
         class="cls-1"
         d="m 95.44,95.44 a 18.4,18.4 0 0 0 -1.5,24.29 73,73 0 0 0 25.78,-25.79 18.39,18.39 0 0 0 -24.28,1.5"
         id="path934-0-1-8-5-9" />
      <path
         class="cls-1"
         d="m 83.8,83.8 a 5.77,5.77 0 1 0 8.16,0 5.78,5.78 0 0 0 -8.16,0"
         id="path936-9-8-6-8-6" />
      <path
         class="cls-1"
         d="M 31.59,31.59 A 18.36,18.36 0 0 0 33.09,7.31 72.93,72.93 0 0 0 7.31,33.09 18.36,18.36 0 0 0 31.59,31.59"
         id="path938-6-5-0-6-0" />
      <path
         class="cls-1"
         d="m 35.07,35.08 a 5.77,5.77 0 1 0 8.16,0 5.78,5.78 0 0 0 -8.16,0"
         id="path940-3-9-4-2-2" />
      <path
         class="cls-1"
         d="M 95.4,31.53 A 18.39,18.39 0 0 0 119.69,33 72.88,72.88 0 0 0 93.9,7.25 18.39,18.39 0 0 0 95.4,31.53"
         id="path942-8-7-8-8-7" />
      <path
         class="cls-1"
         d="m 91.92,43.17 a 5.76,5.76 0 1 0 -8.15,0 5.76,5.76 0 0 0 8.15,0"
         id="path944-5-5-8-4-6" />
      <path
         class="cls-1"
         d="M 31.56,95.37 A 18.39,18.39 0 0 0 7.28,93.87 73,73 0 0 0 33.06,119.66 18.38,18.38 0 0 0 31.56,95.37"
         id="path946-6-3-8-7-1" />
      <path
         class="cls-1"
         d="m 35,83.73 a 5.77,5.77 0 1 0 8.16,0 5.79,5.79 0 0 0 -8.16,0"
         id="path948-1-8-9-2-3" />
    </g>
  </g>
</svg>
